<svg version="1.2" xmlns="http://www.w3.org/2000/svg" viewBox="0 0 300 300" width="300" height="300"><style></style><path  d="m141.5 54.9c-19 5.4-33 20.2-38.2 40.4-1.7 6.5-2 7-5.5 8.2-5.6 1.9-9 4.4-8.6 6.3 0.2 0.9 2.4 2.8 5.1 4.1 4.7 2.3 22.8 6 30.2 6.1 6.8 0.1 7 0.7 2.5 10.4l-4.1 8.8-13.4-0.7-13.3-0.7-0.4 6.7c-0.2 4 0.1 6.9 0.7 7.1 2 0.6 34.7 2.5 35.2 2 0.3-0.2 3.7-7.6 7.7-16.3l7.1-15.8 8.5 0.4c4.7 0.1 9 0.8 9.7 1.4 1 1 17.8 27.9 27.5 44.2 1.7 2.7 3.1 5.1 3.3 5.3 0.4 0.5 6.3-2.6 9.7-5l2.7-1.9-3.8-6.2c-14-22.4-23.2-37.9-22.8-38.4 0.3-0.3 4.3-0.9 8.9-1.4 19.1-2.1 32-6.2 32.6-10.5 1-7-39.4-13.4-77.3-12.1-10.2 0.4-13.4 0.2-10-0.4 2.8-0.4 15.1-1.1 27.4-1.5l22.3-0.7-0.6-4.4c-1.3-9.8-10.7-24.1-19.2-29.4-1.9-1.2-3.3-2.3-3.1-2.5 0.6-0.7 11 2.7 15.7 5.1 9.8 4.9 18.7 15.7 22 26.3 1.7 5.5 3.2 7 7.4 7.1 1.6 0.1 1.8-0.4 1.3-3.5-1.8-10.7-13.5-26.2-25-33-12-7.1-29.1-9.3-42.2-5.5z"/><path  d="m78 136.6c0 0.4-1.6 6.7-3.5 14.2-2 7.4-3.5 13.6-3.3 13.7 0.2 0.2 2.6-2.8 5.3-6.6 4.3-5.9 5.4-6.8 8.1-6.9h3.2l0.4-6.8c0.3-3.7 0.5-6.8 0.4-6.8-0.5-0.6-10.6-1.3-10.6-0.8z"/><path  d="m204.3 177.4l-5.1 3.2 2.6 4.7c1.6 3 3.1 4.6 3.9 4.3 7.7-3 24.3-10.2 24.3-10.6 0-0.3-3.6-0.4-8-0.2-7.7 0.4-8 0.3-9.1-2.2-1.5-3.3-2.2-3.2-8.6 0.8z"/><path  d="m45.5 230.5c0 12.9 0.1 13.4 2 13.1 1.1-0.2 1.9-0.9 1.8-1.5-0.5-2.1-0.6-13.2-0.1-13.6 0.3-0.3 1.3 2.5 2.3 6.2 2.1 8 3 9.3 6.1 9.3 2 0 2.2-0.4 1.8-3.3-0.3-1.9 0.3-5.4 1.5-8.7l2.1-5.5-0.3 8.7-0.3 8.8h3 3.1v-13.5-13.6l-2.9 0.3c-2.7 0.3-3.2 0.9-5.7 8.3-1.5 4.6-2.9 7.4-3.2 6.5-1.9-5-3.5-12.3-3-13.5 0.4-1.2-0.4-1.5-3.8-1.5h-4.4z"/><path  d="m71.5 230.5v13.5h7.6c6.1 0 7.8-0.3 8.3-1.6 1-2.7 0.7-2.9-4.4-2.6l-5 0.4v-4.2c0-4.1 0.1-4.1 3.3-3.8 2.8 0.3 3.2 0 3.5-2.5 0.3-2.5 0.2-2.6-2.3-1.7-4.1 1.6-4.5 1.3-4.5-3.6v-4.7l5 0.5c4.3 0.4 5 0.3 4.8-1.1-0.3-1.3-1.9-1.7-8.3-1.9l-8-0.3z"/><path  d="m98.6 218.4c0.4 1.1-4 18.3-6.2 24.1-0.5 1.1 0.1 1.5 2 1.5 2.3 0 2.6-0.4 2.6-3.3 0-3 0.4-3.6 4.1-5 4.6-1.8 5.2-1.2 5.3 5 0.1 3.1 0.3 3.3 4 3.3 3.2 0 3.7-0.3 3.3-1.8-4.5-15.2-7.1-22.9-7.9-23.9-1.5-1.8-7.9-1.7-7.2 0.1z"/><path  d="m116.5 229.5v13.5h7.8c7.3 0 7.7-0.1 7.7-2.3 0-2-0.4-2.2-5.1-1.8l-5.1 0.3 0.3-11.6 0.4-11.6h-3-3z"/><path  d="m171.7 218c-5 4-5.9 14.9-1.6 20.4 2.8 3.5 8 5.1 12.4 3.6 4.5-1.5 5.8-3.5 1.7-2.5-6.8 1.5-11.9-4.6-10.9-13.1 0.8-7.8 5.7-10.8 9.5-5.9 3.3 4.1 5.2 3.2 3.3-1.7-0.7-2-1.7-2.3-6.3-2.6-4.3-0.2-6 0.1-8.1 1.8z"/><path  d="m195 218.2c0 2.1-4.7 18.9-6.4 22.9-0.6 1.3-0.1 1.6 1.8 1.6 2.2 0 2.6-0.4 2.6-2.8 0-2.1 0.7-3.2 3-4.4 1.6-0.8 3.5-1.5 4.3-1.5 1.5 0 2.7 2.9 2.7 6.8 0 2 0.4 2.3 3.3 2 1.7-0.2 3.3-0.6 3.4-1 0.2-0.9 0-1.4-4-14.8l-3.2-10.5-3.7-0.3c-3.4-0.3-3.8-0.1-3.8 2z"/><path  d="m213.5 229.5v13.6l3.5-0.3 3.4-0.3-0.3-4.8c-0.3-6 1.8-6.4 4.4-0.6 1.9 4.2 4 5.9 7.4 5.9 1.8 0 1.7-0.5-1.4-6.6l-3.4-6.7 2.4-2.9c3-3.5 3.2-6.9 0.7-9.1-1.4-1.3-3.8-1.7-9.3-1.7h-7.4z"/><path  d="m236.5 230.6v13.6l5.8-0.4c4.5-0.3 6.3-1 8.3-3 5.1-5 5.3-15.6 0.4-20.8-2.5-2.7-3.5-3-8.7-3h-5.8z"/></svg>